<?xml version="1.0" encoding="UTF-8" standalone="no"?>
<!DOCTYPE svg PUBLIC "-//W3C//DTD SVG 1.1//EN"
 "http://www.w3.org/Graphics/SVG/1.1/DTD/svg11.dtd">
<!-- Generated by graphviz version 15.1.1 (20260805.0921)
 -->
<!-- Title: Evidence Pages: 1 -->
<svg width="1189pt" height="237pt"
 viewBox="0.00 0.00 1189.00 237.00" xmlns="http://www.w3.org/2000/svg" xmlns:xlink="http://www.w3.org/1999/xlink">
<g id="graph0" class="graph" transform="scale(1 1) rotate(0) translate(15.84 220.84)">
<title>Evidence</title>
<polygon fill="#ffffff" stroke="none" points="-15.84,15.84 -15.84,-220.84 1173.09,-220.84 1173.09,15.84 -15.84,15.84"/>
<text xml:space="preserve" text-anchor="middle" x="167.75" y="-185.8" font-family="Arial" font-size="16.00">Evidence classes answer different questions</text>
<!-- T&#45;&gt;F -->
<!-- F&#45;&gt;S -->
<!-- S&#45;&gt;L -->
<!-- L&#45;&gt;D -->
<!-- T -->
<g id="node1" class="node">
<title>T</title>
<polygon fill="#edf5fa" stroke="none" points="0,0 0,-178.25 191.5,-178.25 191.5,0 0,0"/>
<polygon fill="none" stroke="#315c7d" points="0,0 0,-178.25 191.5,-178.25 191.5,0 0,0"/>
<text xml:space="preserve" text-anchor="start" x="14" y="-149.1" font-family="Arial" font-weight="bold" font-size="17.00">Theorem / proof</text>
<text xml:space="preserve" text-anchor="start" x="15.5" y="-106" font-family="Arial" font-size="14.00">Supports: property follows</text>
<text xml:space="preserve" text-anchor="start" x="14" y="-90.25" font-family="Arial" font-size="14.00">under stated assumptions.</text>
<text xml:space="preserve" text-anchor="start" x="20" y="-48.5" font-family="Arial" font-size="14.00" fill="#7c3740">Does not alone establish:</text>
<text xml:space="preserve" text-anchor="start" x="14" y="-32.75" font-family="Arial" font-size="14.00">assumptions hold in a build</text>
<text xml:space="preserve" text-anchor="start" x="50.75" y="-17" font-family="Arial" font-size="14.00">or deployment.</text>
</g>
<!-- F -->
<g id="node2" class="node">
<title>F</title>
<polygon fill="#f0f3f9" stroke="none" points="210.5,0 210.5,-178.25 415.5,-178.25 415.5,0 210.5,0"/>
<polygon fill="none" stroke="#536f91" points="210.5,0 210.5,-178.25 415.5,-178.25 415.5,0 210.5,0"/>
<text xml:space="preserve" text-anchor="start" x="224.5" y="-149.1" font-family="Arial" font-weight="bold" font-size="17.00">Finite model check</text>
<text xml:space="preserve" text-anchor="start" x="224.5" y="-106" font-family="Arial" font-size="14.00">Supports: no counterexample</text>
<text xml:space="preserve" text-anchor="start" x="230.88" y="-90.25" font-family="Arial" font-size="14.00">within the encoded bounds.</text>
<text xml:space="preserve" text-anchor="start" x="235" y="-48.5" font-family="Arial" font-size="14.00" fill="#7c3740">Does not alone establish:</text>
<text xml:space="preserve" text-anchor="start" x="224.5" y="-32.75" font-family="Arial" font-size="14.00">unmodeled states or runtime</text>
<text xml:space="preserve" text-anchor="start" x="283.38" y="-17" font-family="Arial" font-size="14.00">behavior.</text>
</g>
<!-- S -->
<g id="node3" class="node">
<title>S</title>
<polygon fill="#eef6f2" stroke="none" points="434.5,0 434.5,-178.25 647.75,-178.25 647.75,0 434.5,0"/>
<polygon fill="none" stroke="#557267" points="434.5,0 434.5,-178.25 647.75,-178.25 647.75,0 434.5,0"/>
<text xml:space="preserve" text-anchor="start" x="448.5" y="-149.1" font-family="Arial" font-weight="bold" font-size="17.00">Scripted replay</text>
<text xml:space="preserve" text-anchor="start" x="448.5" y="-106" font-family="Arial" font-size="14.00">Supports: instrument behavior</text>
<text xml:space="preserve" text-anchor="start" x="468.75" y="-90.25" font-family="Arial" font-size="14.00">on specified workloads.</text>
<text xml:space="preserve" text-anchor="start" x="465.38" y="-48.5" font-family="Arial" font-size="14.00" fill="#7c3740">Does not alone establish:</text>
<text xml:space="preserve" text-anchor="start" x="448.5" y="-32.75" font-family="Arial" font-size="14.00">human or LLM&#45;agent behavior,</text>
<text xml:space="preserve" text-anchor="start" x="460.12" y="-17" font-family="Arial" font-size="14.00">or production enforcement.</text>
</g>
<!-- L -->
<g id="node4" class="node">
<title>L</title>
<polygon fill="#fbf6e9" stroke="none" points="666.75,0 666.75,-178.25 892.75,-178.25 892.75,0 666.75,0"/>
<polygon fill="none" stroke="#8c7544" points="666.75,0 666.75,-178.25 892.75,-178.25 892.75,0 666.75,0"/>
<text xml:space="preserve" text-anchor="start" x="680.75" y="-149.1" font-family="Arial" font-weight="bold" font-size="17.00">LLM evaluation</text>
<text xml:space="preserve" text-anchor="start" x="680.75" y="-106" font-family="Arial" font-size="14.00">Supports: observed agent results</text>
<text xml:space="preserve" text-anchor="start" x="686" y="-90.25" font-family="Arial" font-size="14.00">on sampled tasks and budgets.</text>
<text xml:space="preserve" text-anchor="start" x="685.62" y="-48.5" font-family="Arial" font-size="14.00" fill="#7c3740">Does not alone establish:</text>
<text xml:space="preserve" text-anchor="start" x="683" y="-32.75" font-family="Arial" font-size="14.00">other versions, workloads,</text>
<text xml:space="preserve" text-anchor="start" x="680.75" y="-17" font-family="Arial" font-size="14.00">or deployment guarantees.</text>
</g>
<!-- D -->
<g id="node5" class="node">
<title>D</title>
<polygon fill="#f5eff6" stroke="none" points="911.75,0 911.75,-178.25 1157.25,-178.25 1157.25,0 911.75,0"/>
<polygon fill="none" stroke="#765f79" points="911.75,0 911.75,-178.25 1157.25,-178.25 1157.25,0 911.75,0"/>
<text xml:space="preserve" text-anchor="start" x="925.75" y="-149.1" font-family="Arial" font-weight="bold" font-size="17.00">Deployed observation</text>
<text xml:space="preserve" text-anchor="start" x="947.88" y="-106" font-family="Arial" font-size="14.00">Supports: this configuration&#39;s</text>
<text xml:space="preserve" text-anchor="start" x="925.75" y="-90.25" font-family="Arial" font-size="14.00">behavior under observed conditions.</text>
<text xml:space="preserve" text-anchor="start" x="925.75" y="-48.5" font-family="Arial" font-size="14.00" fill="#7c3740">Does not alone establish:</text>
<text xml:space="preserve" text-anchor="start" x="926.12" y="-32.75" font-family="Arial" font-size="14.00">unobserved conditions or</text>
<text xml:space="preserve" text-anchor="start" x="939.62" y="-17" font-family="Arial" font-size="14.00">universal assurance.</text>
</g>
</g>
</svg>
