<svg xmlns="http://www.w3.org/2000/svg" viewBox="0 0 300 300" width="100%" height="100%" role="img" aria-label="Port Daddy">
  <!--
    Header/footer wordmark — the spinning radar mark, LIGHT-surface variant.
    Persisted from PR #452's lockup ("it's handsome"), but the background is
    TRANSPARENT (fill="none") so the page's updated light surface shows through,
    rather than the baked #F4F7FA tile the radar art originally carried. The
    foreground palette is the corrected light-mode radar (deepened seafoam /
    richer amber) so it reads against warm-cream surfaces. Reduced-motion safe.
  -->
  <defs>
    <mask id="pd-radar-intersection-light" maskContentUnits="userSpaceOnUse">
      <g stroke="white" stroke-width="14" stroke-linecap="butt" fill="none">
        <line x1="110" y1="110" x2="110" y2="210" />
        <circle cx="135" cy="135" r="25" />
      </g>
    </mask>
  </defs>

  <style>
    :root {
      --cobalt: #2076FE;
      --seafoam: #12B88F; /* Deepened for light-mode contrast */
      --amber: #F5A623;   /* Richer amber for light mode */
      --radar-grid: #DCE3EB; /* Soft cool-gray for the radar grid */
    }
    .pivot { transform-origin: 150px 150px; }
    .pd-flip { animation: flip 6s cubic-bezier(0.77, 0, 0.17, 1) infinite; }
    .spin-fwd-slow { animation: spin 10s linear infinite; }
    .spin-rev-med { animation: spin-r 7s ease-in-out infinite; }
    .spin-fwd-fast { animation: spin 5s linear infinite; }

    @keyframes flip {
      0%, 15% { transform: rotate(0deg); }
      45%, 65% { transform: rotate(180deg); }
      85%, 100% { transform: rotate(360deg); }
    }
    @keyframes spin { 100% { transform: rotate(360deg); } }
    @keyframes spin-r { 100% { transform: rotate(-360deg); } }
    @media (prefers-reduced-motion: reduce) {
      .pd-flip, .spin-fwd-slow, .spin-rev-med, .spin-fwd-fast { animation: none; }
    }
  </style>

  <!-- Transparent ground: the page surface shows through. -->
  <rect width="300" height="300" fill="none" />

  <g stroke="var(--radar-grid)" stroke-width="1" fill="none">
    <circle cx="150" cy="150" r="45" />
    <circle cx="150" cy="150" r="90" />
    <circle cx="150" cy="150" r="135" />
    <line x1="15" y1="150" x2="285" y2="150" stroke-dasharray="4 4" />
    <line x1="150" y1="15" x2="150" y2="285" stroke-dasharray="4 4" />
    <line x1="55" y1="55" x2="245" y2="245" stroke-dasharray="2 6" />
    <line x1="55" y1="245" x2="245" y2="55" stroke-dasharray="2 6" />
  </g>

  <g class="pivot spin-fwd-slow">
    <circle cx="150" cy="150" r="125" fill="none" stroke="var(--seafoam)" stroke-width="2" stroke-dasharray="1 8" stroke-linecap="round" opacity="0.7"/>

    <path d="M 145 25 L 155 25" stroke="var(--seafoam)" stroke-width="3" fill="none" />
    <path d="M 145 275 L 155 275" stroke="var(--seafoam)" stroke-width="3" fill="none" />
    <path d="M 25 145 L 25 155" stroke="var(--seafoam)" stroke-width="3" fill="none" />
    <path d="M 275 145 L 275 155" stroke="var(--seafoam)" stroke-width="3" fill="none" />

    <line x1="150" y1="25" x2="150" y2="45" stroke="var(--seafoam)" stroke-width="2" stroke-linecap="round" />
    <line x1="150" y1="275" x2="150" y2="255" stroke="var(--seafoam)" stroke-width="2" stroke-linecap="round" />
    <line x1="25" y1="150" x2="45" y2="150" stroke="var(--seafoam)" stroke-width="2" stroke-linecap="round" />
    <line x1="275" y1="150" x2="255" y2="150" stroke="var(--seafoam)" stroke-width="2" stroke-linecap="round" />
  </g>

  <g class="pivot spin-rev-med">
    <circle cx="150" cy="150" r="105" fill="none" stroke="var(--amber)" stroke-width="2" stroke-dasharray="40 10 5 10" opacity="0.8"/>
    <circle cx="150" cy="150" r="115" fill="none" stroke="var(--cobalt)" stroke-width="1.5" stroke-dasharray="2 4" opacity="0.6"/>
  </g>

  <g class="pivot spin-fwd-fast" stroke="var(--cobalt)" stroke-width="2" fill="none">
    <path d="M 213 87 A 90 90 0 0 0 187 68" />
    <path d="M 87 87 A 90 90 0 0 1 113 68" />
    <path d="M 213 213 A 90 90 0 0 1 187 232" />
    <path d="M 87 213 A 90 90 0 0 0 113 232" />
  </g>

  <g class="pivot pd-flip">
    <g stroke="var(--cobalt)" stroke-width="14" stroke-linecap="butt" fill="none">
      <line x1="110" y1="110" x2="110" y2="210" />
      <circle cx="135" cy="135" r="25" />
    </g>
    <g stroke="var(--seafoam)" stroke-width="14" stroke-linecap="butt" fill="none">
      <line x1="190" y1="190" x2="190" y2="90" />
      <circle cx="165" cy="165" r="25" />
    </g>
    <g stroke="var(--amber)" stroke-width="14" stroke-linecap="butt" fill="none" mask="url(#pd-radar-intersection-light)">
      <line x1="190" y1="190" x2="190" y2="90" />
      <circle cx="165" cy="165" r="25" />
    </g>
  </g>

  <!-- Center hub: hollow cobalt ring so it caps the crossing glyphs on any surface. -->
  <circle cx="150" cy="150" r="4" fill="none" stroke="var(--cobalt)" stroke-width="2"/>
</svg>
