<svg xmlns="http://www.w3.org/2000/svg" viewBox="0 0 32 32" width="32" height="32">
  <path d="M24.5 6.5c-2-2-5-2.5-7.5-1L12 9c-1 .5-1.5 1.5-1.5 2.5s.5 2 1.5 2.5l1.5.5c2.5.5 5.5 1 7.5 3 1 1 1.5 2.5 1.5 4s-.5 3-1.5 4l-5 3.5c-2.5 1.5-5.5 1-7.5-1-1.5-1.5-2-3.5-1.5-5.5" stroke="#FF3E00" stroke-width="4" fill="none" stroke-linecap="round"/>
  <path d="M7.5 25.5c2 2 5 2.5 7.5 1L20 23c1-.5 1.5-1.5 1.5-2.5s-.5-2-1.5-2.5l-1.5-.5c-2.5-.5-5.5-1-7.5-3-1-1-1.5-2.5-1.5-4s.5-3 1.5-4l5-3.5c2.5-1.5 5.5-1 7.5 1 1.5 1.5 2 3.5 1.5 5.5" stroke="#FF3E00" stroke-width="4" fill="none" stroke-linecap="round"/>
</svg>