<svg xmlns="http://www.w3.org/2000/svg" viewBox="0 0 32 32" width="32" height="32">
  <path d="M20.5 4.5c-2-2-5-2.5-7.5-1L8 7c-1 .5-1.5 1.5-1.5 2.5s.5 2 1.5 2.5l1.5.5c2.5.5 5.5 1 7.5 3 1 1 1.5 2.5 1.5 4s-.5 3-1.5 4l-5 3.5c-2.5 1.5-5.5 1-7.5-1-1.5-1.5-2-3.5-1.5-5.5" stroke="#FF3E00" stroke-width="3" fill="none" stroke-linecap="round"/>
  <path d="M3.5 23.5c2 2 5 2.5 7.5 1L16 21c1-.5 1.5-1.5 1.5-2.5s-.5-2-1.5-2.5l-1.5-.5c-2.5-.5-5.5-1-7.5-3-1-1-1.5-2.5-1.5-4s.5-3 1.5-4l5-3.5c2.5-1.5 5.5-1 7.5 1 1.5 1.5 2 3.5 1.5 5.5" stroke="#FF3E00" stroke-width="3" fill="none" stroke-linecap="round"/>
  <circle cx="24" cy="24" r="6" fill="none" stroke="#FF3E00" stroke-width="2"/>
  <circle cx="24" cy="24" r="2" fill="#FF3E00"/>
</svg>