<svg xmlns="http://www.w3.org/2000/svg" viewBox="0 0 300 300" fill="none">
  <!-- Porthole detail mark: canonical Port Daddy radar + p/d geometry, with
       exact-window approval brackets. Intended for 128–1024 px. -->
  <rect x="8" y="8" width="284" height="284" rx="62" fill="#101216"/>
  <g stroke="#7DB4FF" stroke-width="2" opacity="0.24">
    <circle cx="150" cy="150" r="45"/>
    <circle cx="150" cy="150" r="90"/>
    <circle cx="150" cy="150" r="130"/>
    <path d="M20 150H280M150 20V280" stroke-dasharray="4 7"/>
    <path d="M58 58L242 242M58 242L242 58" stroke-dasharray="2 9"/>
  </g>
  <g stroke-linecap="square" stroke-width="11">
    <path d="M52 96V52H96" stroke="#7DB4FF"/>
    <path d="M204 52H248V96" stroke="#8FD0A7"/>
    <path d="M248 204V248H204" stroke="#7DB4FF"/>
    <path d="M96 248H52V204" stroke="#8FD0A7"/>
    <path d="M204 52H248" stroke="#F2BE51"/>
  </g>
  <g fill="none" stroke-linecap="butt" stroke-width="14">
    <path d="M110 110V210" stroke="#7DB4FF"/>
    <circle cx="135" cy="135" r="25" stroke="#7DB4FF"/>
    <path d="M190 190V90" stroke="#8FD0A7"/>
    <circle cx="165" cy="165" r="25" stroke="#8FD0A7"/>
  </g>
  <circle cx="150" cy="150" r="5" fill="#F2BE51"/>
  <rect x="8" y="8" width="284" height="284" rx="62" stroke="#FFFFFF" stroke-opacity="0.08" stroke-width="2"/>
</svg>
